{"title":"The Truth (PSP + Ipod touch + Zune)","uid":5634191,"size":376741112,"categoryP":"video","categoryS":"handheld","magnet":"?xt=urn:btih:2e4f6ca1d66303baf561c8da795fcf39f05c751a&amp;dn=The+Truth+%28PSP+%2B+Ipod+touch+%2B+Zune%29&amp;tr=udp%3A%2F%2Ftracker.openbittorrent.com%3A80&amp;tr=udp%3A%2F%2Fopen.demonii.com%3A1337&amp;tr=udp%3A%2F%2Ftracker.coppersurfer.tk%3A6969&amp;tr=udp%3A%2F%2Fexodus.desync.com%3A6969","seeders":0,"leechers":0,"uploader":"on.off.on","files":-1,"time":1276814448,"description":"The Truth\n\nsource:\n\nthe.truth.2010.720p.bluray.x264-thugline &lt;a href=&quot;\nhttp://www.imdb.com/title/tt1315419/&quot; rel=&quot;nofollow&quot; target=&quot;_NEW&quot;&gt;\nhttp://www.imdb.com/title/tt1315419/&lt;/a&gt;\n\nWhen a couple is taken hostage in their home by an intruder, \na simple home invasion robbery turns into something much more complicated...\n\n\nID                               : 1\nFormat                           : AVC\nFormat/Info                      : Advanced Video Codec\nFormat profile                   : &lt;a class=&quot;__cf_email__&quot; href=&quot;/cdn-cgi/l/email-protection&quot; data-cfemail=&quot;7436150711181d1a113438465a44&quot;&gt;[email&amp;#160;protected]&lt;/a&gt;&lt;script cf-hash='f9e31' type=&quot;text/javascript&quot;&gt;\n/* &lt;![CDATA[ */!function(){try{var t=&quot;currentScript&quot;in document?document.currentScript:function(){for(var t=document.getElementsByTagName(&quot;script&quot;),e=t.length;e--;)if(t[e].getAttribute(&quot;cf-hash&quot;))return t[e]}();if(t&amp;&amp;t.previousSibling){var e,r,n,i,c=t.previousSibling,a=c.getAttribute(&quot;data-cfemail&quot;);if(a){for(e=&quot;&quot;,r=parseInt(a.substr(0,2),16),n=2;a.length-n;n+=2)i=parseInt(a.substr(n,2),16)^r,e+=String.fromCharCode(i);e=document.createTextNode(e),c.parentNode.replaceChild(e,c)}}}catch(u){}}();/* ]]&gt; */&lt;/script&gt;\nFormat settings, CABAC           : No\nFormat settings, ReFrames        : 3 frames\nCodec ID                         : avc1\nCodec ID/Info                    : Advanced Video Coding\nDuration                         : 1h 36mn\nBit rate mode                    : Variable\nBit rate                         : 390 Kbps\nWidth                            : 480 pixels\nHeight                           : 208 pixels\nDisplay aspect ratio             : 2.35:1\nFrame rate mode                  : Variable\nFrame rate                       : 23.976 fps\nMinimum frame rate               : 23.810 fps\nMaximum frame rate               : 24.390 fps\nColor space                      : YUV\nChroma subsampling               : 4:2:0\nBit depth                        : 8 bits\nScan type                        : Progressive\nBits/(Pixel*Frame)               : 0.163\nStream size                      : 268 MiB (75%)\nWriting library                  : x264 core 79\n\nID                               : 2\nFormat                           : AAC\nFormat/Info                      : Advanced Audio Codec\nFormat version                   : Version 4\nFormat profile                   : LC\nFormat settings, SBR             : No\nCodec ID                         : 40\nDuration                         : 1h 36mn\nBit rate mode                    : Variable\nBit rate                         : 128 Kbps\nMaximum bit rate                 : 207 Kbps\nChannel(s)                       : 2 channels\nChannel positions                : Front: L R\nSampling rate                    : 48.0 KHz\nStream size                      : 88.1 MiB (25%)\nLanguage                         : English\n &lt;a href=&quot;\nhttp://img35.imageshack.us/gal.php?g=vlcsnap00001im.png&quot; rel=&quot;nofollow&quot; target=&quot;_NEW&quot;&gt;\nhttp://img35.imageshack.us/gal.php?g=vlcsnap00001im.png&lt;/a&gt;\n\n\n\nPLEASE LET THE TORRENT SEED AND SHARE IT WITH ALL YOU KNOW!\n\nLet me know what I can do to be your trusted source of Handheld videos.\n\n\n\n-OOO (on.off.on)\n\n\n\n","torrent":{"xt":"urn:btih:2e4f6ca1d66303baf561c8da795fcf39f05c751a","amp;dn":"The+Truth+%28PSP+%2B+Ipod+touch+%2B+Zune%29","amp;tr":["udp%3A%2F%2Ftracker.openbittorrent.com%3A80","udp%3A%2F%2Fopen.demonii.com%3A1337","udp%3A%2F%2Ftracker.coppersurfer.tk%3A6969","udp%3A%2F%2Fexodus.desync.com%3A6969"],"infoHash":"2e4f6ca1d66303baf561c8da795fcf39f05c751a","infoHashBuffer":{"type":"Buffer","data":[46,79,108,161,214,99,3,186,245,97,200,218,121,95,207,57,240,92,117,26]},"announce":[],"urlList":[]}}